<svg width="506" height="487" viewBox="0 0 506 487" fill="none" xmlns="http://www.w3.org/2000/svg">
<mask id="mask0_1321_892" style="mask-type:luminance" maskUnits="userSpaceOnUse" x="0" y="0" width="506" height="487">
<path d="M505.98 0H0V486.6H505.98V0Z" fill="white"/>
</mask>
<g mask="url(#mask0_1321_892)">
<path d="M403.61 207.28C403.61 207.28 396.65 209.43 381.24 200.5C365.83 191.56 371.55 213.75 387.85 222.04C404.14 230.31 403.61 207.28 403.61 207.28Z" fill="#AA593C"/>
<path d="M41.8101 301.32C41.8101 301.32 73.2601 323.57 108.42 315.14C81.3401 296.03 47.9601 300.79 41.8101 301.32Z" fill="#BCB75C"/>
<path d="M104.25 157.97C104.25 157.97 75.9201 178.49 65.1201 200.14C54.3301 221.79 85.8101 206.46 85.8101 206.46C85.8101 206.46 71.9501 248.3 95.5001 268.02C119.05 287.74 197.76 272.56 180.43 225.77C163.09 178.97 119.6 152.44 104.25 157.97Z" fill="#4A1900"/>
<path opacity="0.45" d="M107.25 253.08C94.6201 239.59 102.39 193.36 100.69 193.04C98.9901 192.72 75.8301 201.61 82.4901 183.91C84.2201 179.32 85.8601 175.46 87.3501 172.24C79.2501 179.92 70.2301 189.9 65.1201 200.14C54.3301 221.79 85.8101 206.46 85.8101 206.46C85.8101 206.46 71.9501 248.3 95.5001 268.02C97.2501 269.48 99.3001 270.75 101.6 271.83C108.07 264.67 111.57 257.71 107.25 253.08Z" fill="#FFF6E7"/>
<path d="M96.9501 148.23C96.9501 148.23 91.4001 161.79 110.93 169.41C130.46 177.02 137.19 167.92 137.19 167.92L128.48 151.38L96.9501 148.23Z" fill="#FFFDB8"/>
<path d="M168.1 197.05C168.1 197.05 201.65 157.69 238.35 168.52C275.05 179.35 305.3 212.34 305.3 212.34L275.04 240.59L228.01 217.47C228.01 217.47 245.76 262.76 250.19 276.52C254.63 290.28 271.49 365.08 271.49 365.08L283.52 404.27L182.98 451.65L146.95 352.4C146.95 352.4 119.4 308.47 112.47 274.98C69.6203 439.48 69.6203 439.48 69.6203 439.48L12.7803 416.12C12.7803 416.12 49.8203 281.41 67.4803 242.36C85.1403 203.32 132.17 198.2 147.26 199.43C162.35 200.65 168.1 197.05 168.1 197.05Z" fill="#C4714D"/>
<path d="M182.98 451.65L283.52 404.27L271.49 365.08C271.49 365.08 254.63 290.29 250.19 276.52C245.75 262.76 228.01 217.47 228.01 217.47C220.99 212.16 207.72 183.43 202.49 171.68C198.88 173.23 195.46 175.04 192.27 176.97C196.61 191.32 205.99 231.79 177.66 242.14C134.11 256.31 115.8 220.85 110 205.2C105.33 206.87 100.62 208.96 96.04 211.58C111.02 236.85 112.48 274.98 112.48 274.98C119.4 308.48 146.96 352.4 146.96 352.4L182.98 451.65Z" fill="#FFFDB8"/>
<path d="M125.5 148.45L153.56 159.53L170.31 171.52C170.31 171.52 174.55 190.75 183.53 201.17C181.8 219.37 171.95 224.24 165.83 225.79C159.71 227.34 148.73 227.75 138.54 212.56C141.48 199.12 125.5 148.45 125.5 148.45Z" fill="#C4714D"/>
<path d="M202.49 171.67C202.49 171.67 230.85 149.91 283.79 187.48C264.78 203.02 251.17 233.83 251.17 233.83C229.2 220.49 229.2 220.49 229.2 220.49C229.2 220.49 201.78 195.42 202.49 171.67Z" fill="#FFFDB8"/>
<path opacity="0.8" d="M135.61 163.53C134.63 157.38 135.7 152.48 135.7 152.48L152.86 162.83L170.3 171.52C170.3 171.52 173.28 185.02 179.52 195.52C153.67 191.53 142.94 167.59 135.61 163.53Z" fill="#420B05"/>
<path d="M229.2 220.49C229.2 220.49 204.86 200.54 202.49 171.67" stroke="#E0DC94" stroke-width="1.9625" stroke-miterlimit="10"/>
<path d="M431.16 244.57C431.16 244.57 452.03 255.97 460.3 384.94C465.46 465.45 484.93 510.53 493.54 540.7C502.16 570.87 497.23 581.95 497.23 581.95L445.52 597.34C445.52 597.34 435.67 589.95 423.97 570.25C412.27 550.55 390.73 456.36 390.73 456.36L431.16 244.57Z" fill="#D3910D"/>
<path d="M386.01 217.89C386.01 217.89 421 224.81 431.16 244.57C437.3 256.53 420.9 384.94 413.1 426.39C405.3 467.84 392.17 514.22 378.21 519.56C299.41 524.49 239.07 525.31 210.76 515.46C202.96 478.52 196.81 428.86 204.6 362.78C202.96 327.89 205.83 220.77 205.83 220.77C205.83 220.77 212.17 213.39 255.5 207.56C297.19 201.94 386.01 217.89 386.01 217.89Z" fill="#D3910D"/>
<path d="M295.53 342.05C295.53 342.05 309.73 321.51 313.96 318.06C318.18 314.61 320.49 331.11 316.26 338.02C302.83 341.47 295.53 342.05 295.53 342.05Z" fill="#AA593C"/>
<path opacity="0.48" d="M345.79 362.77C345.79 362.77 358.1 356.61 362.01 352.92C365.92 349.23 350.51 346.76 350.51 346.76C317.68 347.38 294.29 362.77 294.29 362.77L201.06 429.38C201.3 445.16 202.34 459.66 203.85 473C232.71 456.79 268.83 420.94 268.83 420.94C268.83 420.94 281.76 415.09 318.02 394.47C340.73 399.09 346.4 394.78 334.94 380C356.1 380.62 364.26 373.84 367.23 371.02C370.19 368.21 345.79 362.77 345.79 362.77Z" fill="#5B4A01"/>
<path d="M205.83 220.76C205.83 220.76 147.55 303.05 127.23 343.68C106.91 384.31 79.8303 441.57 87.8303 466.81C95.8303 492.05 133.39 498.82 153.09 486.51C172.79 474.2 250.98 426.18 250.98 426.18C250.98 426.18 255.7 418.79 255.49 415.1C245.43 406.48 241.74 390.47 245.43 375.08C229.42 375.7 186.33 393.55 186.33 393.55L204.59 362.77C204.6 362.77 234.56 256.67 205.83 220.76Z" fill="#D3910D"/>
<path d="M186.34 393.55C180.63 395.31 174.92 396.93 169.21 398.55C163.5 400.19 157.79 401.78 152.12 403.48C146.44 405.15 140.8 406.92 135.22 408.85C132.44 409.85 129.68 410.87 126.98 412.06C124.28 413.24 121.63 414.54 119.23 416.32C121.23 414.08 123.8 412.4 126.37 410.87C128.98 409.37 131.68 408.06 134.44 406.87C137.19 405.67 140 404.64 142.81 403.62C145.64 402.64 148.49 401.74 151.34 400.87C154.21 400.05 157.08 399.25 159.98 398.51C162.88 397.81 165.77 397.09 168.69 396.49C174.52 395.26 180.4 394.21 186.34 393.55Z" fill="#AA7305"/>
<path d="M170.07 397.25C167.38 397.05 164.76 396.69 162.16 396.28C159.55 395.89 156.98 395.43 154.4 394.96C151.83 394.47 149.26 394 146.69 393.45C144.12 392.92 141.54 392.41 138.93 391.71C141.59 391.28 144.29 391.2 146.95 391.34C149.62 391.47 152.28 391.79 154.89 392.28C157.51 392.77 160.1 393.4 162.64 394.22C165.18 395.02 167.69 395.97 170.07 397.25Z" fill="#AA7305"/>
<path d="M204.6 362.77C207.78 350.99 210.47 339.11 212.74 327.17C213.84 321.19 214.9 315.21 215.7 309.19C216.53 303.18 217.27 297.15 217.71 291.11C218.67 279.03 218.8 266.87 217.36 254.87C216.62 248.87 215.4 242.94 213.57 237.18C211.75 231.42 209.23 225.86 205.84 220.78C209.73 225.5 212.63 231.01 214.84 236.74C217.01 242.5 218.54 248.5 219.48 254.58C220.44 260.66 220.86 266.8 221.04 272.94C221.14 279.08 220.88 285.22 220.44 291.33C219.42 303.55 217.52 315.67 214.83 327.61C212.13 339.52 208.85 351.32 204.6 362.77Z" fill="#AA7305"/>
<path d="M431.16 244.57C430.64 265.12 429.58 285.66 428.13 306.17C426.7 326.68 424.84 347.17 422.55 367.61C420.21 388.04 417.47 408.45 413.81 428.7C410.1 448.91 405.81 469.18 398.48 488.42C401.64 478.64 404.12 468.67 406.2 458.62C408.3 448.58 410.07 438.47 411.72 428.34C413.34 418.21 414.81 408.05 416.13 397.87C417.49 387.7 418.72 377.5 419.86 367.3C421.05 357.1 422.1 346.89 423.12 336.67C424.17 326.45 425.09 316.23 426.04 306L428.7 275.3C429.58 265.06 430.34 254.81 431.16 244.57Z" fill="#AA7305"/>
<path d="M236.42 382.17C236.42 382.17 270.2 352.23 284.79 345.7C299.38 339.17 337 329.19 342.37 327.66C347.74 326.12 348.13 334.57 340.83 340.33C358.1 342.63 363.48 346.47 353.11 351.08C342.75 355.69 334.93 355.39 334.93 355.39C334.93 355.39 358.1 362.6 361.55 362.98C365 363.36 364.62 372.96 352.34 372.58C340.06 372.2 328.54 372.96 328.54 372.96C328.54 372.96 340.06 381.02 344.28 384.09C348.5 387.16 343.51 393.3 335.83 391C328.15 388.7 317.4 386.01 317.4 386.01C317.4 386.01 297.82 395.99 286.31 398.68C267.88 409.43 249.46 418.26 249.46 418.26C249.46 418.26 241.02 405.97 236.42 382.17Z" fill="#C4714D"/>
<g opacity="0.6">
<path d="M340.83 340.32C338.74 341.01 336.63 341.5 334.5 341.93C332.38 342.37 330.24 342.7 328.1 343.01C325.95 343.28 323.81 343.53 321.64 343.66C319.48 343.81 317.31 343.88 315.11 343.77C317.2 343.08 319.31 342.58 321.44 342.15C323.56 341.71 325.7 341.38 327.84 341.07C329.99 340.8 332.13 340.55 334.3 340.42C336.46 340.29 338.63 340.21 340.83 340.32Z" fill="#874315"/>
</g>
<g opacity="0.6">
<path d="M334.94 355.38C333.62 355.84 332.3 356.11 330.98 356.31C329.65 356.51 328.32 356.64 326.99 356.7C325.66 356.76 324.32 356.74 322.98 356.66C321.64 356.57 320.3 356.42 318.95 356.07C320.27 355.61 321.59 355.34 322.91 355.14C324.24 354.94 325.57 354.81 326.9 354.76C328.23 354.7 329.57 354.72 330.91 354.81C332.25 354.88 333.59 355.04 334.94 355.38Z" fill="#874315"/>
</g>
<g opacity="0.6">
<path d="M328.55 372.95C327.78 372.99 327.1 372.84 326.45 372.66C325.8 372.47 325.2 372.2 324.62 371.88C324.04 371.56 323.5 371.18 322.99 370.74C322.49 370.29 322.01 369.79 321.63 369.11C322.4 369.07 323.08 369.21 323.73 369.4C324.38 369.6 324.98 369.86 325.56 370.18C326.14 370.5 326.68 370.88 327.19 371.32C327.69 371.78 328.17 372.28 328.55 372.95Z" fill="#874315"/>
</g>
<path d="M245.44 375.08C242.2 375.2 237.84 376.04 232.96 377.29C232.94 377.35 222.69 407.52 250.98 426.18C250.98 426.18 255.7 418.79 255.49 415.1C245.44 406.48 241.74 390.47 245.44 375.08Z" fill="#FFFDB8"/>
<path d="M250.98 426.18C247.21 429.16 243.31 431.91 239.35 434.57C235.4 437.25 231.37 439.8 227.33 442.32L221.2 446.01C219.13 447.19 217.09 448.42 214.99 449.56C210.82 451.89 206.61 454.13 202.25 456.15C206.01 453.17 209.92 450.42 213.88 447.75C215.84 446.39 217.86 445.12 219.85 443.81L225.9 440C229.98 437.53 234.07 435.08 238.24 432.77C242.41 430.45 246.62 428.2 250.98 426.18Z" fill="#AA7305"/>
<path d="M105.27 448.62C98.49 448.62 92.1 450.29 86.48 453.23C86.22 458.38 86.62 462.97 87.83 466.81C94.94 489.24 125.37 497.07 145.89 489.91C145.89 489.69 145.91 489.47 145.91 489.25C145.91 466.81 127.71 448.62 105.27 448.62Z" fill="#AA7305"/>
<path d="M467.48 452.71C463.71 453.18 460.07 453.89 456.5 454.83C452.94 455.8 449.47 457.02 446.17 458.58C444.47 459.27 442.92 460.23 441.3 461.08C439.77 462.07 438.17 462.98 436.73 464.11C433.69 466.2 431.07 468.81 428.29 471.42C430.16 468.14 432.46 464.97 435.39 462.46L436.46 461.48C436.81 461.14 437.23 460.9 437.61 460.6L439.95 458.89C441.62 457.92 443.26 456.89 445.04 456.11C448.56 454.51 452.27 453.34 456.07 452.76C459.85 452.17 463.72 452.04 467.48 452.71Z" fill="#AA7305"/>
<path d="M443.24 237.63C443.21 230 443.96 224.05 441.03 217.77C431.49 197.39 399.87 198.31 391.85 219.33C391.78 219.52 391.83 218.38 391.85 219.33L399.95 222.15C402.89 235.41 400.98 246.8 411.17 242.17C412.53 252 415.72 249.93 422.35 246.79C425.41 259.25 428.72 254.34 434.34 248.92C435.19 261.19 443.27 243.87 443.24 237.63Z" fill="#C4714D"/>
<path d="M434.32 248.93C434.43 244.91 434.91 241.06 435.21 237.19C435.37 235.26 435.53 233.34 435.6 231.41C435.66 229.48 435.67 227.57 435.49 225.56C436.52 227.31 436.99 229.34 437.24 231.34C437.51 233.35 437.47 235.37 437.31 237.37C437.14 239.37 436.81 241.34 436.31 243.27C435.83 245.21 435.22 247.12 434.32 248.93Z" fill="#874315"/>
<path d="M422.34 246.8C422.64 244.66 423.02 242.58 423.39 240.5C423.75 238.42 424.15 236.37 424.49 234.3C424.88 232.24 425.19 230.17 425.54 228.1C425.89 226.02 426.14 223.94 426.55 221.81C427.02 223.92 427.22 226.09 427.17 228.24C427.19 229.32 427.07 230.39 427 231.47C426.88 232.54 426.74 233.61 426.56 234.67C426.16 236.78 425.67 238.88 424.97 240.91C424.29 242.95 423.46 244.94 422.34 246.8Z" fill="#874315"/>
<path d="M411.16 242.18C411.27 240.05 411.46 237.98 411.66 235.92C411.84 233.85 412.06 231.81 412.21 229.76C412.4 227.71 412.5 225.67 412.63 223.61C412.72 221.55 412.74 219.5 412.8 217.36C413.6 219.33 414.06 221.44 414.27 223.56C414.48 225.68 414.47 227.82 414.3 229.93C414.1 232.04 413.78 234.14 413.26 236.19C412.76 238.24 412.12 240.26 411.16 242.18Z" fill="#874315"/>
<path d="M14.8 444.5C14.8 444.5 2.64005 418.39 24.05 397.26C45.46 376.13 85.91 353 103.5 341.91C121.09 330.82 126.29 325.19 138.79 306.77C151.29 288.35 167.72 286.83 186.03 288.76C204.33 290.69 206.82 302.17 194.6 301.32C199.17 307.62 203.55 311.57 190.83 312.86C193.01 319.83 194.61 323.27 184.71 323.25C186.41 328.69 180.56 330.28 167.06 331.34C153.56 332.4 146.56 336.98 146.56 336.98C146.56 336.98 105.3 397.56 92.76 419.3C80.21 441.05 44.42 489.78 14.8 444.5Z" fill="#C4714D"/>
<path d="M194.59 301.32C190.64 300.65 186.9 299.65 183.13 298.81C181.25 298.39 179.37 297.96 177.48 297.62C175.58 297.3 173.7 297.01 171.69 296.91C173.56 296.14 175.63 295.95 177.64 295.98C179.66 295.99 181.65 296.31 183.6 296.75C185.55 297.19 187.45 297.8 189.29 298.56C191.13 299.32 192.93 300.18 194.59 301.32Z" fill="#874315"/>
<path d="M190.82 312.86C188.75 312.27 186.75 311.61 184.75 310.95C182.75 310.3 180.77 309.63 178.78 309C176.8 308.33 174.81 307.73 172.81 307.1C170.81 306.46 168.79 305.92 166.74 305.22C168.89 305.05 171.06 305.15 173.18 305.49C174.25 305.62 175.29 305.89 176.34 306.11C177.38 306.38 178.41 306.67 179.44 306.99C181.47 307.67 183.47 308.46 185.38 309.43C187.29 310.4 189.15 311.49 190.82 312.86Z" fill="#874315"/>
<path d="M184.7 323.25C182.61 322.85 180.6 322.37 178.59 321.89L172.58 320.49C170.58 320.03 168.58 319.63 166.57 319.22C164.55 318.84 162.53 318.54 160.43 318.18C162.49 317.66 164.64 317.5 166.76 317.58C168.88 317.67 170.99 317.96 173.05 318.43C175.11 318.91 177.13 319.53 179.09 320.33C181.04 321.12 182.95 322.04 184.7 323.25Z" fill="#874315"/>
<path d="M103.5 341.91C98.2103 346.22 92.8603 350.44 87.4503 354.57C82.0603 358.73 76.6103 362.81 71.1803 366.9L54.8003 379.09L46.6203 385.19C45.2403 386.19 43.9003 387.24 42.5403 388.26C41.8503 388.77 41.2003 389.3 40.5303 389.84L38.5103 391.41C43.3003 386.55 48.5003 382.1 53.7803 377.79C59.0603 373.48 64.4603 369.32 69.9103 365.22C75.3803 361.16 80.8803 357.14 86.4803 353.25C92.0603 349.34 97.7303 345.56 103.5 341.91Z" fill="#874315"/>
<path opacity="0.23" d="M73.8101 445.28C69.2501 431.9 57.0401 421.87 42.0501 420.83C30.0401 420 19.0301 425.15 11.8501 433.72C12.8001 440.22 14.7901 444.5 14.7901 444.5C34.6501 474.85 57.2701 462.96 73.8101 445.28Z" fill="#841A25"/>
<path d="M96.0298 211.57C96.0298 211.57 65.7798 214.25 41.7998 301.32C69.0198 299.59 108.41 315.14 108.41 315.14C115.28 285.77 115.28 285.77 115.28 285.77C115.28 285.77 113.32 238.93 96.0298 211.57Z" fill="#FFFDB8"/>
<path d="M115.28 285.78C115.28 285.78 125.06 240.7 96.0303 211.57" stroke="#E0DC94" stroke-width="1.9625" stroke-miterlimit="10"/>
<path d="M154.37 37.19C154.37 37.19 197.31 28.97 202.74 66C208.17 103.03 188.59 115 188.59 115L144.4 149.06C128.37 161.42 105.75 160.74 90.6698 147.25C81.3398 138.91 72.8098 127.22 69.6298 111.23C61.2798 69.29 81.1898 41.1 108.9 35.91C136.61 30.72 154.37 37.19 154.37 37.19Z" fill="#4A1900"/>
<path d="M166.22 57.7702C164.83 53.9602 163.27 50.3202 161.31 46.8802C160.37 45.1402 159.28 43.4902 158.13 41.8802C157 40.2402 155.67 38.7702 154.37 37.2002C156.07 38.3002 157.69 39.6002 159.03 41.1602L159.55 41.7302L160.02 42.3402C160.33 42.7502 160.66 43.1502 160.96 43.5602C161.53 44.4102 162.1 45.2702 162.6 46.1702C163.59 47.9702 164.44 49.8402 165.05 51.7902C165.67 53.7202 166.12 55.7302 166.22 57.7702Z" fill="#281010"/>
<path opacity="0.45" d="M143.91 34.8602C135.98 33.7102 123.9 33.1002 108.9 35.9102C85.8602 40.2302 68.2302 60.4502 67.7402 91.2502C90.6002 89.9302 104.69 76.8002 104.69 76.8002C104.69 76.8002 79.5902 101.18 106.79 87.3602C127.7 76.7502 139.54 47.7302 143.91 34.8602Z" fill="#FFF6E7"/>
<path opacity="0.45" d="M201.79 94.0503C203.67 86.9303 204.46 77.7303 202.74 66.0003C198.52 37.2703 171.74 35.7803 159.95 36.5603C168.2 40.5503 183.82 49.2503 188.27 59.8403C194.41 74.4403 192 55.8703 190.45 52.9503C199.14 60.9003 205.51 77.6103 201.79 94.0503Z" fill="#FFF6E7"/>
<path d="M166.22 57.77C166.22 57.77 186.66 61.45 194.82 104.08C202.86 144.47 202.9 165.78 187.31 170.17C171.71 174.57 134.69 175.16 115.83 143.7C107.4 122.45 106.97 120.27 106.97 120.27C106.97 120.27 112.2 107.6 112.64 100.08C148.49 87.14 165.71 69.82 166.22 57.77Z" fill="#C47758"/>
<path d="M179.94 106.8C179.94 106.8 177.19 94.9903 192.32 91.5003C196.03 90.2803 196.03 90.2803 196.03 90.2803L192.39 93.6903C192.39 93.6803 183.07 98.1803 179.94 106.8Z" fill="#4A1900"/>
<path d="M179.94 106.8C185.79 108.08 192.19 107.23 195.33 106.66C195.16 105.81 195 104.95 194.82 104.08C194.1 100.32 193.28 96.8699 192.39 93.6899C188.54 94.3699 181.18 96.9499 179.94 106.8Z" fill="#F9ECE4"/>
<path d="M175.23 109.91C175.23 109.91 181.42 117.88 183.41 127.9C174.56 126.03 174.56 126.03 174.56 126.03L186.44 130.93C186.44 130.94 184.03 117.61 175.23 109.91Z" fill="#4A1900"/>
<path d="M190.39 136.2C188.88 137.3 187.18 137.97 185.47 138.5C183.75 139.02 181.99 139.35 180.22 139.53C178.45 139.72 176.67 139.74 174.89 139.61C173.11 139.47 171.34 139.19 169.58 138.59C171.33 137.96 173.06 137.61 174.78 137.3C176.5 136.99 178.21 136.78 179.92 136.6C181.63 136.42 183.35 136.3 185.08 136.22C186.81 136.15 188.55 136.13 190.39 136.2Z" fill="#4A1900"/>
<path d="M115.16 129.44C116.9 138.16 111.68 146.55 103.51 148.17C95.3399 149.8 87.3099 144.05 85.5699 135.33C83.8299 126.61 89.0499 118.23 97.2199 116.6C105.4 114.97 113.43 120.72 115.16 129.44Z" fill="#C4714D"/>
<path opacity="0.51" d="M92.7802 126.33C89.8502 126.91 87.3002 128.38 85.3102 130.41C85.1602 132.01 85.2302 133.67 85.5702 135.33C87.3102 144.05 95.3402 149.8 103.51 148.17C106.44 147.59 108.99 146.12 110.98 144.09C111.13 142.49 111.06 140.83 110.72 139.17C108.99 130.45 100.95 124.7 92.7802 126.33Z" fill="#7F311F"/>
<path d="M188.27 81.8804C184.01 82.0604 180.2 83.5804 177.59 86.5104C178.58 91.4804 178.58 91.4804 178.58 91.4804C178.58 91.4804 181.33 87.1204 189.19 84.1004C188.89 83.3304 188.58 82.6004 188.27 81.8804Z" fill="#4A1900"/>
<path d="M156.93 93.85L155.57 87.02C155.57 87.02 133.39 87.56 122.88 101.28C132.45 95.82 151.03 91.8 156.93 93.85Z" fill="#4A1900"/>
<path d="M280.25 206.38C279.82 214.81 280.16 228.09 285.27 237.25C293.29 251.63 308.71 255.72 318.5 255.94C327.6 256.15 358.87 256.27 361.08 213.91C339.19 210.71 306.81 206.69 280.25 206.38Z" fill="#FFFDB8"/>
<path d="M161.19 109.99C161.19 109.99 148.13 86.97 121.5 111.41C123.69 113.88 126.14 114.01 126.14 114.01L161.19 109.99Z" fill="#4A1900"/>
<path d="M161.19 109.99C161.19 109.99 144.38 92.4201 125.89 112.98C121.77 119.74 150.99 122 161.19 109.99Z" fill="#F9ECE4"/>
<path opacity="0.51" d="M152.8 128.67C153.49 132.14 148.42 136.08 141.47 137.47C134.52 138.85 128.33 137.16 127.64 133.68C126.95 130.21 132.02 126.27 138.97 124.88C145.91 123.5 152.11 125.2 152.8 128.67Z" fill="#841515"/>
<path opacity="0.51" d="M188.78 119.57C189.32 122.3 193.27 123.92 198.3 123.83C197.75 120.07 197.08 116.08 196.3 111.85C191.41 113.67 188.22 116.77 188.78 119.57Z" fill="#841515"/>
<path d="M161.19 109.99C161.19 109.99 150.94 98.4301 137.48 103.86C134.36 107.49 132.67 113.13 133.68 118.19C133.69 118.23 133.7 118.28 133.71 118.32C142.22 119.24 155.1 117.16 161.19 109.99Z" fill="#4A1900"/>
<path d="M184.69 107.41C188.98 107.64 193.03 107.08 195.32 106.66C195.15 105.81 194.99 104.95 194.81 104.08C194.09 100.32 193.27 96.8699 192.38 93.6899C191.09 93.9199 189.65 93.7099 187.93 94.5699C185.42 97.9499 183.98 102.95 184.69 107.41Z" fill="#4A1900"/>
<path opacity="0.24" d="M166.22 57.77C165.73 69.31 149.91 85.68 117.09 98.42C121.7 120.42 136.99 168.58 182.75 171.22C184.41 170.91 185.95 170.56 187.31 170.18C202.91 165.78 202.86 144.47 194.82 104.09C186.66 61.45 166.22 57.77 166.22 57.77Z" fill="#FFF6E7"/>
<path opacity="0.51" d="M172.96 209.48C172.96 209.48 170.57 229.44 165.82 225.79C161.07 222.14 154.51 216.85 154.51 216.85C154.51 216.85 170.28 216.27 172.96 209.48Z" fill="#7F311F"/>
<path d="M317.76 245.7C331.81 246.57 343.92 235.89 344.79 221.83L347.62 176.38L296.72 173.22L293.89 218.67C293.02 232.72 303.71 244.82 317.76 245.7Z" fill="#C47758"/>
<path d="M345.16 215.88C345.16 215.93 345.15 215.97 345.14 216.02C312.37 213.98 296.97 183.37 296.97 183.37L336.38 187.28L346.98 183.26L347.19 183.27L345.16 215.88Z" fill="#380403"/>
<path d="M269.57 116.8C269.57 116.8 262.53 72.6101 274.73 48.5801C259.75 38.4701 259.88 31.4401 276.63 37.6801C279.79 16.4601 284.62 17.3701 288.21 33.5001C309.69 17.7001 349.89 15.9201 381.42 25.5301C412.95 35.1401 371.14 38.3501 371.14 38.3501C407.32 47.0301 426.61 76.3801 425.38 91.2901C424.15 106.21 403 96.9401 403 96.9401C403 96.9401 393.04 124.17 389.67 129.16C386.3 134.16 269.57 116.8 269.57 116.8Z" fill="#4A1900"/>
<path d="M405.56 146.8C399.73 154.87 388.91 157.01 381.39 151.57C373.87 146.14 372.49 135.2 378.32 127.13C384.15 119.06 394.97 116.92 402.49 122.35C410.01 127.78 411.39 138.73 405.56 146.8Z" fill="#C47758"/>
<path opacity="0.51" d="M405.56 146.8C409.93 140.74 410.25 133.07 406.95 127.32C400.46 126 393.27 128.71 388.9 134.77C384.53 140.83 384.21 148.5 387.51 154.25C394 155.57 401.19 152.85 405.56 146.8Z" fill="#7F311F"/>
<path d="M253.45 137.34C258.23 146.07 268.7 149.53 276.84 145.07C284.98 140.61 287.7 129.92 282.91 121.2C278.13 112.47 267.66 109.01 259.52 113.47C251.39 117.92 248.67 128.61 253.45 137.34Z" fill="#C47758"/>
<path d="M279.2 94.7604C280.57 80.6004 285.89 67.2504 296.28 57.3804C303.23 67.6104 319.56 87.6904 344.68 94.8604C357.27 99.0004 332.6 77.5804 331.3 73.8304C353.71 85.6304 374.36 90.0904 384.91 91.7304C385.25 94.9104 385.37 98.1304 385.28 101.37C384.55 127.95 379.47 165.27 361.82 183.45C344.17 201.63 325.88 200.49 325.88 200.49C325.88 200.49 307.59 199.35 292.32 179.13C277.05 158.89 276.64 121.22 279.2 94.7604Z" fill="#C47758"/>
<path opacity="0.51" d="M253.45 137.34C249.86 130.79 250.5 123.13 254.48 117.84C261.09 117.34 267.88 120.92 271.47 127.47C275.06 134.02 274.42 141.68 270.44 146.97C263.83 147.47 257.04 143.89 253.45 137.34Z" fill="#7F311F"/>
<path d="M342.65 127.47C345.2 127.85 347.67 128.22 350.12 128.52C352.58 128.79 355.01 129.01 357.42 129.02C359.84 129.04 362.22 128.86 364.58 128.41C365.75 128.15 366.92 127.84 368.07 127.43C369.23 127.02 370.34 126.48 371.51 125.9C370.74 126.95 369.77 127.84 368.71 128.63C367.62 129.37 366.44 130.01 365.2 130.48C362.71 131.43 360.03 131.81 357.41 131.79C354.78 131.77 352.18 131.35 349.7 130.63C347.21 129.91 344.8 128.92 342.65 127.47Z" fill="#661420"/>
<path d="M345.76 103.19C345.76 103.19 366.63 107.05 372.2 120C376.41 114.93 372.25 102.65 363.5 99.0102C354.74 95.3602 345.76 103.19 345.76 103.19Z" fill="#4A1900"/>
<path d="M318.27 125.96C315.96 127.13 313.44 127.82 310.89 128.23C308.33 128.64 305.71 128.73 303.09 128.43C300.48 128.13 297.87 127.42 295.52 126.17C294.34 125.54 293.25 124.77 292.26 123.9C291.3 122.98 290.45 121.98 289.82 120.84C290.91 121.56 291.94 122.23 293.04 122.78C294.13 123.33 295.25 123.78 296.38 124.19C298.66 124.93 301.01 125.41 303.41 125.68C305.81 125.97 308.25 126.05 310.72 126.09C313.19 126.08 315.69 126.01 318.27 125.96Z" fill="#661420"/>
<path d="M318.19 101.47C318.19 101.47 297.01 102.71 289.87 114.88C286.32 109.32 291.96 97.6602 301.11 95.1302C310.25 92.5902 318.19 101.47 318.19 101.47Z" fill="#4A1900"/>
<path d="M332.73 144.3C332.96 146.1 333.02 147.89 333.03 149.68C333.05 150.57 333.01 151.47 333 152.36C332.99 152.81 332.96 153.25 332.94 153.7L332.91 154.37L332.89 154.7L332.84 155.13C332.62 156.3 331.74 157.29 330.63 157.65C330.08 157.83 329.48 157.86 328.92 157.73C328.65 157.67 328.36 157.56 328.14 157.45L327.55 157.14C325.97 156.31 324.4 155.43 322.91 154.41C324.68 154.81 326.38 155.37 328.06 155.97L328.69 156.19C328.88 156.26 329.01 156.29 329.18 156.32C329.5 156.36 329.82 156.31 330.11 156.19C330.69 155.96 331.14 155.43 331.23 154.83L331.26 154.6L331.29 154.27L331.34 153.6C331.38 153.16 331.4 152.71 331.45 152.27C331.55 151.38 331.62 150.49 331.75 149.61C332 147.82 332.28 146.06 332.73 144.3Z" fill="#661420"/>
<path d="M341.05 164.7C338.93 164.67 336.84 164.68 334.75 164.62C332.66 164.59 330.57 164.49 328.48 164.4C326.39 164.28 324.3 164.16 322.22 163.96C320.13 163.77 318.04 163.54 315.95 163.14C320.16 162.59 324.36 162.58 328.56 162.77C330.66 162.9 332.76 163.06 334.85 163.35C336.94 163.65 339.04 164 341.05 164.7Z" fill="#661420"/>
<path opacity="0.55" d="M342.65 63.52C320.51 56.32 305.92 36.1399 300.21 26.9C322.69 17.47 355.07 17.51 381.43 25.54C412.96 35.15 371.15 38.3699 371.15 38.3699C390.29 42.9599 404.65 53.3399 413.8 64.3099C379.79 63.1999 339.03 43.11 339.03 43.11C339.03 43.11 371.74 72.9799 342.65 63.52Z" fill="#FFF6E7"/>
<path opacity="0.32" d="M286.13 138.37C285.86 142.65 291.99 146.51 299.82 147C307.65 147.49 314.21 144.41 314.48 140.14C314.75 135.86 308.62 132 300.79 131.51C292.96 131.02 286.4 134.09 286.13 138.37Z" fill="#AF0808"/>
<path opacity="0.32" d="M373 143.77C372.73 148.05 366.17 151.12 358.34 150.63C350.51 150.14 344.38 146.28 344.65 142C344.92 137.72 351.48 134.65 359.31 135.14C367.14 135.63 373.27 139.49 373 143.77Z" fill="#AF0808"/>
<path opacity="0.29" d="M296.28 57.3804C303.23 67.6104 319.56 87.6904 344.68 94.8604C357.27 99.0004 332.6 77.5804 331.3 73.8304C347.52 82.3704 362.8 87.0604 374.01 89.6204C373.24 112.12 366.66 196.34 311.42 195.73C305.55 192.63 298.68 187.55 292.32 179.12C277.05 158.89 276.64 121.23 279.21 94.7704C280.57 80.6104 285.89 67.2504 296.28 57.3804Z" fill="#F9ECE4"/>
<path opacity="0.24" d="M276.53 126.78C275.73 139.6 285.48 150.64 298.3 151.43C311.12 152.23 322.16 142.48 322.95 129.66C323.75 116.84 314 105.8 301.18 105.01C288.36 104.22 277.33 113.96 276.53 126.78Z" fill="white"/>
<path opacity="0.24" d="M322.95 129.67C322.73 133.15 321.74 136.39 320.18 139.27C319.69 139.27 319.21 139.28 318.72 139.25C305.17 138.41 294.86 126.74 295.71 113.18C295.89 110.31 296.58 107.59 297.65 105.08C298.81 104.98 299.99 104.93 301.19 105C314 105.81 323.75 116.85 322.95 129.67Z" fill="white"/>
<path opacity="0.24" d="M384.284 133.22C384.938 120.391 375.068 109.46 362.238 108.806C349.409 108.153 338.478 118.023 337.825 130.852C337.171 143.682 347.041 154.612 359.87 155.266C372.7 155.92 383.63 146.05 384.284 133.22Z" fill="white"/>
<path opacity="0.24" d="M384.27 133.48C384.05 136.96 383.06 140.2 381.5 143.08C381.01 143.08 380.53 143.09 380.04 143.06C366.49 142.22 356.18 130.55 357.03 116.99C357.21 114.12 357.9 111.4 358.97 108.89C360.13 108.79 361.31 108.74 362.51 108.81C375.32 109.62 385.07 120.66 384.27 133.48Z" fill="white"/>
<path d="M276.53 126.78C275.73 139.6 285.48 150.64 298.3 151.43C311.12 152.23 322.16 142.48 322.95 129.66C323.75 116.84 314 105.8 301.18 105.01C288.36 104.22 277.33 113.96 276.53 126.78Z" stroke="#A36307" stroke-width="3.5033" stroke-miterlimit="10"/>
<path d="M379.889 145.725C387.436 135.33 385.128 120.785 374.733 113.238C364.337 105.691 349.792 108 342.245 118.395C334.698 128.79 337.007 143.335 347.402 150.882C357.797 158.429 372.342 156.12 379.889 145.725Z" stroke="#A36307" stroke-width="3.5033" stroke-miterlimit="10"/>
<path d="M337.85 130.59C337.85 130.59 330.36 126.36 322.95 129.66" stroke="#A36307" stroke-width="3.5033" stroke-miterlimit="10"/>
<path d="M255.5 230.98C255.5 230.98 286.41 307.34 391.94 296.66C347.09 309.31 272.8 303.01 255.5 230.98Z" fill="#AA7305"/>
<path d="M178.78 334.24C178.78 334.24 158.47 337.76 153.55 349.65C148.64 361.54 173.07 341.72 178.78 334.24Z" fill="#AA7305"/>
<path d="M201.06 288.12C201.06 288.12 191.68 276.49 183.53 270.82C194.88 271.71 199.32 282.08 201.06 288.12Z" fill="#AA7305"/>
<path d="M396.12 229.76C396.12 229.76 377.32 234.6 370.65 244.56C375.43 228.55 390.41 228.77 396.12 229.76Z" fill="#AA7305"/>
</g>
</svg>
